<svg xmlns="http://www.w3.org/2000/svg" width="33.467" height="29.467" viewBox="52.767 395.767 33.467 29.467"><g data-name="Union 95"><path d="M74.213 424.807a15.434 15.434 0 0 0-2.542-7.064c-.456-.687-.698-1.46-.826-2.27-.175-1.105-.215-2.218-.219-3.333-.003-1 0-2 0-2.985.074-1.61.02-3.204.041-4.798.007-.496.15-.92.538-1.244.214-.18.464-.271.738-.312.121-.018.165.033.182.149.133.948.322 1.886.486 2.83.147.85.3 1.7.451 2.55.015.081.039.162.06.242.11.398.442.608.828.525.368-.08.576-.4.51-.805-.069-.427-.147-.851-.222-1.276-.308-1.763-.616-3.526-.926-5.288-.13-.737-.261-1.475-.396-2.211-.025-.134 0-.228.12-.305.369-.235.758-.337 1.19-.222.133.035.208.101.233.251.198 1.207.404 2.411.61 3.616.176 1.041.345 2.084.534 3.123.09.49.486.721.918.572.323-.11.505-.434.441-.801-.154-.887-.313-1.772-.469-2.659-.268-1.516-.534-3.032-.803-4.548a41.792 41.792 0 0 0-.182-.982c-.025-.128 0-.216.115-.29.387-.252.796-.342 1.249-.207.117.034.172.097.192.212.114.677.23 1.354.349 2.03.19 1.097.384 2.193.576 3.29.069.389.127.78.21 1.166.083.378.36.593.708.584.428-.01.728-.374.654-.809-.144-.851-.294-1.701-.443-2.552-.106-.61-.212-1.22-.322-1.829-.017-.095.013-.153.09-.21.869-.648 2.063-.203 2.274.867.187.95.337 1.906.505 2.859.101.579.203 1.157.308 1.736.015.085.016.13-.095.1-.49-.13-.933-.025-1.32.29-.794.648-1.21 1.5-1.22 2.515-.008.715.222 1.392.532 2.037.013.029.026.057.042.084.062.102.069.15-.08.196a7.886 7.886 0 0 0-3.722 2.417c-.455.524-.865 1.083-1.175 1.708-.153.31-.118.6.083.812.28.297.741.29 1.007-.019.151-.174.248-.385.364-.582.95-1.617 2.34-2.65 4.15-3.128.2-.053.405-.095.595-.182.335-.153.462-.4.379-.76-.101-.437-.308-.838-.466-1.255-.138-.364-.327-.711-.362-1.108-.052-.573.095-1.089.499-1.505.395-.407.993-.44 1.41-.06.928.845 1.863 1.687 2.566 2.743a4.94 4.94 0 0 1 .84 2.721c.009.627-.242 1.174-.568 1.692a14.097 14.097 0 0 1-1.144 1.543c-.439.522-.881 1.04-1.276 1.598-.628.887-.802 1.834-.526 2.888.244.936.515 1.863.822 2.78.332.991.678 1.977 1.057 2.95.04.104.006.12-.083.113-.03-.002-.062 0-.093 0-3.253 0-6.505-.002-9.758.003h-.002c-.152 0-.2-.039-.216-.193Zm-18.51.19c-.026 0-.052-.005-.097-.009l.18-.485c.56-1.512 1.097-3.031 1.532-4.585.13-.46.235-.926.306-1.401.096-.636-.046-1.219-.35-1.773-.349-.634-.805-1.188-1.264-1.741-.483-.581-.972-1.158-1.385-1.792-.324-.498-.586-1.022-.62-1.63-.027-.477.065-.943.188-1.4a5.336 5.336 0 0 1 1.348-2.397c.543-.554 1.093-1.102 1.643-1.65.088-.088.185-.17.288-.239a.962.962 0 0 1 1.188.057 1.73 1.73 0 0 1 .53 1.92c-.23.625-.476 1.244-.713 1.866-.048.126-.09.255-.063.395.058.308.236.504.541.577.497.118.986.253 1.454.463a6.817 6.817 0 0 1 3.223 2.935c.07.122.135.248.216.362.174.242.555.334.83.21a.675.675 0 0 0 .379-.736 1.366 1.366 0 0 0-.162-.388c-.905-1.641-2.209-2.853-3.92-3.625a5.437 5.437 0 0 0-.801-.303c-.133-.036-.152-.08-.098-.206.178-.41.375-.812.493-1.245.346-1.263-.208-2.757-1.252-3.412-.376-.235-.77-.335-1.205-.255-.094.017-.092-.021-.08-.093.152-.86.301-1.721.452-2.582.117-.672.213-1.347.357-2.013.217-1 1.301-1.443 2.166-.913.125.077.168.16.142.306-.166.921-.325 1.844-.485 2.766-.093.538-.19 1.076-.274 1.616a.665.665 0 0 0 .524.741c.357.083.702-.1.804-.442.124-.415.166-.847.242-1.272.261-1.465.515-2.93.77-4.396.05-.287.097-.575.143-.863.038-.235.06-.258.293-.32.46-.12.861.01 1.234.278.07.05.067.108.055.178-.209 1.168-.417 2.335-.624 3.503-.276 1.557-.551 3.114-.822 4.672-.046.263-.043.525.178.724.19.173.413.242.665.17.262-.074.436-.247.487-.517.12-.633.231-1.269.344-1.904l.798-4.534c.024-.138.052-.276.073-.415.017-.107.077-.163.178-.192.476-.14.904-.041 1.296.252.072.055.082.12.066.205-.184 1.013-.365 2.027-.546 3.04l-.738 4.134c-.098.553-.2 1.105-.292 1.66a.7.7 0 0 0 .538.783.67.67 0 0 0 .807-.513c.11-.524.196-1.054.289-1.581l.706-4.012a1.17 1.17 0 0 0 .016-.124c.006-.09.053-.109.137-.097.72.096 1.253.66 1.304 1.382.008.12.014.24.014.36 0 3.042-.004 6.085 0 9.127.002 1.002-.09 1.987-.456 2.929-.274.706-.64 1.367-1.035 2.01a13.76 13.76 0 0 0-1.747 4.432c-.13.617-.23 1.238-.304 1.863-.013.104-.048.14-.156.14-3.31-.002-6.619-.001-9.929-.002Z" fill="#fff" fill-rule="evenodd"/><path d="M74.213 424.807a15.434 15.434 0 0 0-2.542-7.064c-.456-.687-.698-1.46-.826-2.27-.175-1.105-.215-2.218-.219-3.333-.003-1 0-2 0-2.985.074-1.61.02-3.204.041-4.798.007-.496.15-.92.538-1.244.214-.18.464-.271.738-.312.121-.018.165.033.182.149.133.948.322 1.886.486 2.83.147.85.3 1.7.451 2.55.015.081.039.162.06.242.11.398.442.608.828.525.368-.08.576-.4.51-.805-.069-.427-.147-.851-.222-1.276-.308-1.763-.616-3.526-.926-5.288-.13-.737-.261-1.475-.396-2.211-.025-.134 0-.228.12-.305.369-.235.758-.337 1.19-.222.133.035.208.101.233.251.198 1.207.404 2.411.61 3.616.176 1.041.345 2.084.534 3.123.09.49.486.721.918.572.323-.11.505-.434.441-.801-.154-.887-.313-1.772-.469-2.659-.268-1.516-.534-3.032-.803-4.548a41.792 41.792 0 0 0-.182-.982c-.025-.128 0-.216.115-.29.387-.252.796-.342 1.249-.207.117.034.172.097.192.212.114.677.23 1.354.349 2.03.19 1.097.384 2.193.576 3.29.069.389.127.78.21 1.166.083.378.36.593.708.584.428-.01.728-.374.654-.809-.144-.851-.294-1.701-.443-2.552-.106-.61-.212-1.22-.322-1.829-.017-.095.013-.153.09-.21.869-.648 2.063-.203 2.274.867.187.95.337 1.906.505 2.859.101.579.203 1.157.308 1.736.015.085.016.13-.095.1-.49-.13-.933-.025-1.32.29-.794.648-1.21 1.5-1.22 2.515-.008.715.222 1.392.532 2.037.013.029.026.057.042.084.062.102.069.15-.08.196a7.886 7.886 0 0 0-3.722 2.417c-.455.524-.865 1.083-1.175 1.708-.153.31-.118.6.083.812.28.297.741.29 1.007-.019.151-.174.248-.385.364-.582.95-1.617 2.34-2.65 4.15-3.128.2-.053.405-.095.595-.182.335-.153.462-.4.379-.76-.101-.437-.308-.838-.466-1.255-.138-.364-.327-.711-.362-1.108-.052-.573.095-1.089.499-1.505.395-.407.993-.44 1.41-.06.928.845 1.863 1.687 2.566 2.743a4.94 4.94 0 0 1 .84 2.721c.009.627-.242 1.174-.568 1.692a14.097 14.097 0 0 1-1.144 1.543c-.439.522-.881 1.04-1.276 1.598-.628.887-.802 1.834-.526 2.888.244.936.515 1.863.822 2.78.332.991.678 1.977 1.057 2.95.04.104.006.12-.083.113-.03-.002-.062 0-.093 0-3.253 0-6.505-.002-9.758.003h-.002c-.152 0-.2-.039-.216-.193Zm-18.51.19c-.026 0-.052-.005-.097-.009l.18-.485c.56-1.512 1.097-3.031 1.532-4.585.13-.46.235-.926.306-1.401.096-.636-.046-1.219-.35-1.773-.349-.634-.805-1.188-1.264-1.741-.483-.581-.972-1.158-1.385-1.792-.324-.498-.586-1.022-.62-1.63-.027-.477.065-.943.188-1.4a5.336 5.336 0 0 1 1.348-2.397c.543-.554 1.093-1.102 1.643-1.65.088-.088.185-.17.288-.239a.962.962 0 0 1 1.188.057 1.73 1.73 0 0 1 .53 1.92c-.23.625-.476 1.244-.713 1.866-.048.126-.09.255-.063.395.058.308.236.504.541.577.497.118.986.253 1.454.463a6.817 6.817 0 0 1 3.223 2.935c.07.122.135.248.216.362.174.242.555.334.83.21a.675.675 0 0 0 .379-.736 1.366 1.366 0 0 0-.162-.388c-.905-1.641-2.209-2.853-3.92-3.625a5.437 5.437 0 0 0-.801-.303c-.133-.036-.152-.08-.098-.206.178-.41.375-.812.493-1.245.346-1.263-.208-2.757-1.252-3.412-.376-.235-.77-.335-1.205-.255-.094.017-.092-.021-.08-.093.152-.86.301-1.721.452-2.582.117-.672.213-1.347.357-2.013.217-1 1.301-1.443 2.166-.913.125.077.168.16.142.306-.166.921-.325 1.844-.485 2.766-.093.538-.19 1.076-.274 1.616a.665.665 0 0 0 .524.741c.357.083.702-.1.804-.442.124-.415.166-.847.242-1.272.261-1.465.515-2.93.77-4.396.05-.287.097-.575.143-.863.038-.235.06-.258.293-.32.46-.12.861.01 1.234.278.07.05.067.108.055.178-.209 1.168-.417 2.335-.624 3.503-.276 1.557-.551 3.114-.822 4.672-.046.263-.043.525.178.724.19.173.413.242.665.17.262-.074.436-.247.487-.517.12-.633.231-1.269.344-1.904l.798-4.534c.024-.138.052-.276.073-.415.017-.107.077-.163.178-.192.476-.14.904-.041 1.296.252.072.055.082.12.066.205-.184 1.013-.365 2.027-.546 3.04l-.738 4.134c-.098.553-.2 1.105-.292 1.66a.7.7 0 0 0 .538.783.67.67 0 0 0 .807-.513c.11-.524.196-1.054.289-1.581l.706-4.012a1.17 1.17 0 0 0 .016-.124c.006-.09.053-.109.137-.097.72.096 1.253.66 1.304 1.382.008.12.014.24.014.36 0 3.042-.004 6.085 0 9.127.002 1.002-.09 1.987-.456 2.929-.274.706-.64 1.367-1.035 2.01a13.76 13.76 0 0 0-1.747 4.432c-.13.617-.23 1.238-.304 1.863-.013.104-.048.14-.156.14-3.31-.002-6.619-.001-9.929-.002Z" stroke-linejoin="round" stroke-linecap="round" stroke="rgba(0,0,0,0 )" fill="transparent"/></g></svg>