<svg xmlns="http://www.w3.org/2000/svg" width="25.168" height="34" viewBox="56.5 203.5 25.168 34"><g data-name="Union 107"><path d="M10.11 33.991c-.52-.005-1.04-.035-1.56-.045-.12-.002-.126-.035-.089-.135.39-1.046.73-2.108 1.085-3.166.049-.147.107-.206.275-.205 2.115.007 4.23.006 6.345.006.167 0 .34.01.419-.19.083-.21-.036-.414-.26-.43-.128-.01-.256-.003-.383-.003h-4.967v-.003H5.76c-.222 0-.219-.003-.224-.216-.03-1.118-.115-2.233-.177-3.349-.053-.939-.102-1.878-.157-2.818-.067-1.16-.14-2.32-.208-3.48l-.187-3.231c-.022-.376-.042-.752-.069-1.127-.068-.986.148-1.924.486-2.839.257-.695.599-1.344 1.127-1.877.113-.114.232-.225.365-.312a.389.389 0 0 0 .178-.277c.152-.795.243-1.596.24-2.407a1.856 1.856 0 0 0-.262-.979 8.5 8.5 0 0 1-.889-2.1 3.146 3.146 0 0 1-.078-1.396c.025-.144.07-.28.186-.38 1.206-1.04 2.468-1.997 3.918-2.68a3.727 3.727 0 0 1 1.154-.348.353.353 0 0 1 .224.035c.874.492 1.74.988 2.43 1.741.413.45.644.99.852 1.543.367.972.543 1.987.56 3.02.02 1.288-.185 2.545-.719 3.732a3.32 3.32 0 0 1-.576.908c-.34.367-.746.61-1.271.56a1.268 1.268 0 0 1-.558-.198c-.092-.058-.134-.034-.177.055-.145.298-.292.595-.446.889-.047.09-.052.157.015.24 1.082 1.33 1.585 2.905 1.91 4.554.016.077.091.18.025.232-.063.048-.146-.045-.218-.078-1.123-.508-2.244-1.02-3.367-1.529-.129-.058-.267-.095-.391.007-.197.16-.164.425.076.542.398.193.802.373 1.204.557.91.415 1.82.83 2.73 1.243.084.037.133.094.145.186.102.756.178 1.516.229 2.278.007.11-.028.126-.135.106-1.444-.27-2.78-.833-4.078-1.498-.507-.26-.996-.552-1.49-.834-.117-.066-.233-.068-.344.01-.111.078-.137.193-.128.322.008.116.09.172.173.228.379.251.777.468 1.18.677 1.06.549 2.14 1.057 3.292 1.39.478.14.958.271 1.455.321.103.01.14.065.145.164.043.684.091 1.369.132 2.053.017.292.158.513.368.7.358.315.78.521 1.216.701 1.12.464 2.292.77 3.457 1.097 1.346.378 2.702.72 4.007 1.229.511.199 1.009.423 1.455.75.401.294.631.66.62 1.177a42.49 42.49 0 0 0 .002 2.209c.018.598-.27.98-.764 1.252-.587.322-1.221.514-1.87.657-1.615.357-3.256.505-4.902.608-1.933.121-3.868.16-5.803.16-.573 0-1.145-.003-1.718-.009ZM8.772 10.375c.715.33 1.348.782 1.921 1.317.12.11.169.09.235-.047.198-.407.4-.813.614-1.212.162-.301.38-.326.622-.09.432.418.84.406 1.246-.037.236-.256.403-.553.53-.874.298-.747.438-1.525.48-2.327.05-.95.003-1.89-.247-2.813a5.452 5.452 0 0 0-.37-1.028c-.024.013-.04.018-.05.03-.085.087-.17.174-.252.265-1.48 1.67-3.289 2.817-5.445 3.41-.264.072-.264.073-.223.344.137.905.038 1.8-.118 2.69-.025.142.006.174.142.17h.056c.3 0 .586.076.86.202ZM7.59 33.93c-.542-.016-1.084-.025-1.626-.05-.514-.024-1.03.006-1.485-.048-1.48-.053-2.9-.107-4.322-.153-.125-.004-.156-.037-.156-.161 0-.189-.013-.378.039-.56.153-.54.543-.797 1.07-.882 1.388-.223 2.639-.793 3.829-1.514a.716.716 0 0 1 .387-.12c1.157.005 2.314.005 3.471.005.093 0 .154 0 .11.124-.374 1.085-.746 2.172-1.116 3.259-.03.089-.092.101-.162.101H7.59Zm7.024-12.953c-.103-.006-.11-.072-.115-.147-.03-.414-.056-.828-.093-1.24a15.797 15.797 0 0 0-.221-1.694c-.007-.036-.03-.082.013-.103.022-.01.064.008.092.023.278.147.568.27.856.399.097.043.16.025.234-.044.91-.85 1.824-1.696 2.734-2.546.075-.069.152-.107.253-.097.831.081 1.669.082 2.5.178.114.014.148.029.067.143-.75 1.055-1.492 2.115-2.24 3.171a24.46 24.46 0 0 1-.636.871c-.46.593-1.083.91-1.808 1.053-.3.059-.604.07-.982.084-.169-.014-.411-.036-.654-.05Zm6.493-5.58c-.85-.063-1.698-.122-2.548-.182-.077-.005-.14-.02-.08-.117.431-.705.744-1.484 1.287-2.12.39-.456.815-.874 1.343-1.172.237-.133.486-.248.772-.17.29.078.456.293.458.591.001.155-.002.31-.002.465v.447h-.003c0 .299-.002.598 0 .896a.445.445 0 0 1-.139.338c-.294.3-.577.61-.86.92-.06.065-.12.105-.206.105l-.022-.001Z" fill-rule="evenodd" fill="url(&quot;#a&quot;)" transform="translate(57 204)"/><path d="M67.11 237.991c-.52-.005-1.04-.035-1.56-.045-.12-.002-.126-.035-.089-.135.39-1.046.73-2.108 1.085-3.166.049-.147.108-.206.275-.205 2.115.007 4.23.006 6.345.006.167 0 .34.01.419-.19.083-.21-.036-.414-.26-.43-.128-.01-.255-.003-.383-.003h-4.966v-.003H62.76c-.222 0-.218-.003-.224-.216-.03-1.118-.115-2.233-.177-3.349-.053-.939-.102-1.878-.156-2.818-.068-1.16-.14-2.32-.209-3.48l-.187-3.231c-.022-.376-.042-.752-.068-1.127-.07-.986.147-1.924.485-2.839.257-.695.599-1.344 1.127-1.877.113-.114.232-.225.365-.312a.389.389 0 0 0 .178-.277c.152-.795.244-1.596.24-2.407a1.856 1.856 0 0 0-.262-.979 8.5 8.5 0 0 1-.889-2.1 3.146 3.146 0 0 1-.078-1.396c.025-.144.07-.28.186-.38 1.206-1.04 2.468-1.997 3.918-2.68a3.727 3.727 0 0 1 1.154-.348.353.353 0 0 1 .224.035c.874.492 1.74.988 2.43 1.741.413.45.644.99.852 1.543.367.972.543 1.987.56 3.02.02 1.288-.185 2.545-.719 3.732a3.32 3.32 0 0 1-.576.908c-.34.367-.745.61-1.271.56a1.268 1.268 0 0 1-.558-.198c-.091-.058-.134-.034-.177.055-.145.298-.292.595-.446.889-.046.09-.052.157.015.24 1.082 1.33 1.586 2.905 1.91 4.554.016.077.092.18.025.232-.063.048-.146-.045-.218-.078-1.123-.508-2.244-1.02-3.367-1.529-.129-.058-.266-.095-.39.007-.198.16-.165.425.076.542.397.193.8.373 1.203.557.91.415 1.82.83 2.73 1.243.084.037.133.094.145.186.102.756.179 1.516.229 2.278.007.11-.028.126-.135.106-1.444-.27-2.78-.833-4.077-1.498-.508-.26-.997-.552-1.491-.834-.117-.066-.233-.068-.344.01-.111.078-.137.193-.128.322.008.116.09.172.174.228.378.251.776.468 1.179.677 1.06.549 2.14 1.057 3.292 1.39.478.14.958.271 1.455.321.103.01.14.065.145.164.043.684.091 1.369.132 2.053.018.292.158.513.368.7.358.315.78.521 1.216.701 1.12.464 2.293.77 3.457 1.097 1.346.378 2.702.72 4.007 1.229.511.199 1.01.423 1.456.75.4.294.63.66.619 1.177a42.49 42.49 0 0 0 .002 2.209c.018.598-.27.98-.764 1.252-.587.322-1.221.514-1.87.657-1.615.357-3.255.505-4.902.608-1.933.121-3.868.16-5.803.16-.573 0-1.145-.003-1.718-.009Zm-1.338-23.616c.715.33 1.348.782 1.922 1.317.118.11.168.09.234-.047.198-.407.4-.813.614-1.212.162-.301.38-.326.623-.09.43.418.84.406 1.246-.037.235-.256.402-.553.53-.874.297-.747.437-1.525.48-2.327.05-.95.002-1.89-.248-2.813a5.452 5.452 0 0 0-.37-1.028c-.024.013-.04.018-.05.03-.085.087-.17.174-.252.265-1.48 1.67-3.289 2.817-5.445 3.41-.264.072-.263.073-.223.344.137.905.038 1.8-.118 2.69-.025.142.006.174.142.17h.056c.3 0 .586.076.86.202ZM64.59 237.93c-.542-.016-1.084-.025-1.626-.05-.514-.024-1.03.006-1.485-.048-1.48-.053-2.9-.107-4.322-.153-.125-.004-.156-.037-.156-.161.001-.189-.013-.378.039-.56.153-.54.543-.797 1.07-.882 1.388-.223 2.639-.793 3.829-1.514a.716.716 0 0 1 .388-.12c1.156.005 2.313.005 3.47.005.093 0 .154 0 .11.124-.374 1.085-.746 2.172-1.116 3.259-.03.089-.092.101-.162.101h-.039Zm7.024-12.953c-.103-.006-.11-.072-.115-.147-.03-.414-.056-.828-.093-1.24a15.797 15.797 0 0 0-.22-1.694c-.008-.036-.03-.082.012-.103.022-.01.064.008.092.023.278.147.568.27.856.399.097.043.16.025.234-.044.91-.85 1.824-1.696 2.735-2.546.074-.069.15-.107.252-.097.831.081 1.669.082 2.5.178.114.014.148.029.067.143-.75 1.055-1.492 2.115-2.24 3.171a24.46 24.46 0 0 1-.636.871c-.46.593-1.082.91-1.808 1.053-.3.059-.604.07-.982.084-.169-.014-.411-.036-.654-.05Zm6.493-5.58c-.849-.063-1.698-.122-2.548-.182-.077-.005-.14-.02-.08-.117.431-.705.744-1.484 1.287-2.12.39-.456.816-.874 1.343-1.172.237-.133.486-.248.772-.17.29.078.456.293.459.591l-.003.465v.447h-.003c0 .299-.002.598 0 .896a.445.445 0 0 1-.139.338c-.294.3-.577.61-.86.92-.06.065-.12.105-.206.105l-.022-.001Z" stroke-linejoin="round" stroke-linecap="round" stroke="rgba(0,0,0,0 )" fill="transparent"/></g><defs><linearGradient x1=".5" y1="0" x2=".5" y2="1" id="a"><stop stop-color="#21367f" offset="0"/><stop stop-color="#194d91" offset=".283"/><stop stop-color="#1590c1" offset=".879"/><stop stop-color="#0298ca" offset=".995"/><stop stop-color="#0298ca" offset="1"/></linearGradient></defs></svg>