<svg xmlns="http://www.w3.org/2000/svg" width="41.532" height="45" viewBox="44.5 209 41.532 45"><path d="M64.051 218.667c1.162-1.447 1.463-3.687 1.048-5.614-.414-1.925-1.547-3.535-3.25-3.72v1.648c.98.877 1.61 1.71 1.955 2.87.344 1.157.406 2.64.247 4.816Zm-3.945 2.725c-.868.31-3.114.922-4.264 1.612-1.151.69-1.39 1.92-1.397 2.33.682-.642 1.022-.867 1.951-1.37 1.796-.97 4.701-1.73 6.54-2.475 2.804-1.133 5.768-2.08 7.419-2.65 1.229-.472 1.768-.681 2.247-1.1.48-.421.849-1.233.597-1.7-.755 1.376-4.813 2.389-7.395 3.303-1.435.51-3.22 1.125-5.698 2.05Zm-8.502 5.28c.195 1.023-.373.93-.373 1.708 0 .485.153.642.627.844-.617.792-3.998 2.795-5.207 3.077v.275c2.068 0 5.698-1.828 6.058-3.12l1.688.02c.073-.309.235-.51.235-.882 0-.984-1.084-2.334-2.065-2.334h-.275c-.32 0-.42.226-.688.412Zm.822 1.145c.098.05.006.397-.112.475-.183.088-.349.026-.318-.062.146-.356.285-.451.43-.413Zm1.059.176c.171.061.248.55.109.645-.235.108-.537-.137-.53-.245.049-.43.184-.446.42-.4Zm7.331 21.82c2.429 0 3.831-1.594 4.732-3.678.794-2.127.837-3.215.463-5.366-.467-2.107-1.102-5.69-1.307-7.621.118-1.337.338-2.595.58-3.916 1.125 1.517 1.662 2.416 2.143 4.775l.895 5.906c.516 3.221 1.19 6.56 3.96 8.18 1.977 1.25 5.15-.697 5.324-1.912-2.612-4.36-2.739-11.086-4.617-14.77l1.093-3.701 3.527 6.573-.112.9-1.55-1.257 2.576 7.235c1.134 3.43.52 10.632-4.237 10.88-3.138.5-5.97-1.271-7.044-6.25-.568 4.068-3.275 8.154-6.74 7.904-8.38-1.548-5.07-11.425-4.954-17.147-.622.012-1.378 2.295-1.558 2.96-1.507 3.741-.342 14.354-5.777 13.912-4.398-.89-3.868-10.204-3.425-15.049h.76c-.126 4.963.765 9.616 2.23 11.183.615.657 1.551.503 2-.062.887-1.122 1.482-3.52 1.631-4.25.739-3.626.871-7.87 3.22-10.927.762-.991 1.712-1.885 2.838-2.423l.055 4.325c-.513 3.455-1.242 6.324-.69 9.803.494 1.761 1.799 3.793 3.984 3.793Zm19.752-24.793.963 6.589 1.489 9.47c.475 4.306 1.115 7.83 1.477 12.921 1.539-1.876 1.651-4.898 1.47-7.21-1.374-9.865-2.746-19.731-4.117-29.596l2.013 1.959.05-1.56L79.682 209c-.319.77-1.283 2.613-1.344 4.145 1.282 3.253 1.446 7.296 2.23 11.875Zm-13.506 2.022c-1.187.156-1.2-2.63-1.261-3.176-.058-.735-.215-1.461-.683-1.975-.23.38-.673 1.33-.715 1.723l.228.252c.273 1.283.57 2.253.075 2.909-.74.984-2.159 1.26-2.156-.365l.186-2.963c.076-.364.153-.727.227-1.09-1.158.558-1.673 1.833-2.281 3.205l.047.848.843-1.396.077 1.073c.016.735-.293 2.832 1.599 3.166 1.055.186 1.858-.739 2.241-1.787.29.912 1.103 1.444 2.057 1.262 1.396-.403 1.31-2.135 1.322-2.995.089-.944-.349-2.732-.7-3.782-.076-.227-.12-.435-.368-.075-.264.384-.595 1.217-.55 1.719l.37.584c.215.673.357 1.102.214 1.904-.04.408-.162.879-.772.959Zm0 0" fill="#171b1e" fill-rule="evenodd" data-name="Path 21849"/></svg>