<svg xmlns="http://www.w3.org/2000/svg" width="18" height="14.974" viewBox="79 606.013 18 14.974"><path d="M88 606.013c4.486 0 8.218 3.228 9 7.487-.782 4.26-4.514 7.487-9 7.487s-8.218-3.227-9-7.487c.782-4.26 4.514-7.487 9-7.487Zm0 13.31a7.49 7.49 0 0 0 7.302-5.823 7.49 7.49 0 0 0-14.604 0A7.491 7.491 0 0 0 88 619.323Zm0-2.08a3.744 3.744 0 1 1 0-7.487 3.744 3.744 0 0 1 0 7.488Zm0-1.663a2.08 2.08 0 1 0 0-4.16 2.08 2.08 0 0 0 0 4.16Z" fill="#004eff" fill-rule="evenodd" data-name="Path 20612"/></svg>