<svg xmlns="http://www.w3.org/2000/svg" width="15.629" height="14" viewBox="-3098 -10661 15.629 14"><path d="M-3093.027-10661a4.973 4.973 0 0 0 0 9.946h.76a5.015 5.015 0 0 1 0-1.421h-.76a3.552 3.552 0 0 1 0-7.104h5.683a3.552 3.552 0 0 1 3.48 4.263c.417.408.761.888 1.014 1.42a4.973 4.973 0 0 0-4.494-7.104h-5.683Zm5.683 7.104a2.131 2.131 0 1 0 0 4.262 2.131 2.131 0 0 0 0-4.262Zm-3.552 2.131a3.552 3.552 0 1 1 6.516 1.96l1.8 1.8-1.004 1.005-1.801-1.801a3.552 3.552 0 0 1-5.51-2.964Z" fill="#171b1e" fill-rule="evenodd" data-name="Path 21842"/></svg>