<svg xmlns="http://www.w3.org/2000/svg" width="16" height="16" viewBox="54.5 471.5 16 16"><path d="M56.305 485.695c-1.248-1.249-1.805-3.16-1.805-6.195 0-3.036.557-4.946 1.805-6.195 1.249-1.248 3.16-1.805 6.195-1.805 3.036 0 4.946.557 6.195 1.805 1.248 1.249 1.805 3.16 1.805 6.195 0 3.036-.557 4.946-1.805 6.195-1.249 1.248-3.16 1.805-6.195 1.805-3.036 0-4.946-.557-6.195-1.805Zm1.052-11.338c-.948.947-1.37 2.533-1.37 5.143s.422 4.196 1.37 5.143c.947.948 2.533 1.37 5.143 1.37s4.196-.422 5.143-1.37c.948-.947 1.37-2.533 1.37-5.143s-.422-4.196-1.37-5.143c-.947-.948-2.533-1.37-5.143-1.37s-4.196.422-5.143 1.37Zm2.027 8.26a.74.74 0 0 1-.184-.748l1.234-3.947a.744.744 0 0 1 .488-.487l3.946-1.235a.745.745 0 0 1 .931.931l-1.234 3.946a.743.743 0 0 1-.487.487L60.13 482.8a.74.74 0 0 1-.747-.184Zm2.353-3.88-.694 2.22 2.219-.695.694-2.22-2.219.695Z" fill="#ff4040" fill-rule="evenodd" data-name="Union 51"/></svg>