<svg xmlns="http://www.w3.org/2000/svg" width="248.785" height="263" viewBox="72.054 244.5 248.785 263"><g data-name="Group 4"><g data-name="Group 3"><g data-name="Group 7"><path d="M128.42 298.134s36.613-2.968 51.636-38.93c.806-.788 3.734-6.438 6.034-8.531 7.253-6.6 20.284-11.222 39.874 8.53 6.687 7.368 17.36 22.23 41.104 22.23 5.398.989 25.623 2.617 25.623 30.023.596 6.854 1.696 16.23 18.33 24.656 4.797 2.602 18.332 6.406 0 45.684-1.916 6.258-4.53 24.074-4.53 43.027-.534 5.709 3.015 27.046-32.221 37.553-7.34 1.574-20.062 1.907-25.01 25.73-1.529 4.567-13.537 22.582-33.332 7.532-4.697-2.08-20.161-16.326-44.19 3.695-6.998 3.777-38.482 23.216-62.172-19.642-5.012-8.568-12.443-17.77-12.443-48.158 1.304-8.923 13.713-38.146-9.002-52.675-5.493-2.907-15.567-4.684-15.567-30.377 4.261-46.195 55.867-50.347 55.867-50.347Z" fill="rgba(255,226,211,0 )" fill-rule="evenodd" data-name="Path 7"/><path d="M127.353-.5c8.081 0 16.968 4.829 26.412 14.352l.015.016c.605.666 1.241 1.392 1.915 2.16 3.454 3.944 7.754 8.85 13.942 12.86a42.907 42.907 0 0 0 10.74 5.023c4.374 1.342 9.13 2.022 14.137 2.022h.045l.045.008c.308.057.662.115 1.072.182 3.34.547 9.557 1.567 14.968 5.741 6.626 5.113 9.988 13.38 9.993 24.57.265 3.05.633 7.218 3.085 11.513 2.776 4.861 7.673 9.022 14.971 12.719l.013.006c.274.149.582.304.909.469 1.379.694 3.095 1.558 4.663 3.087 1.86 1.814 3.043 4.106 3.619 7.007.706 3.56.449 8.062-.764 13.385-1.415 6.207-4.173 13.729-8.198 22.356-1.02 3.353-2.125 9.565-2.955 16.632-.704 5.995-1.543 15.41-1.543 26.215l-.002.046c-.052.555-.065 1.284-.079 2.128-.067 3.919-.179 10.478-4.305 17.294-2.28 3.766-5.534 7.152-9.671 10.063-4.878 3.43-11.11 6.291-18.521 8.501l-.039.01a82.05 82.05 0 0 1-1.941.383c-3.674.693-8.247 1.557-12.418 4.909-2.295 1.843-4.207 4.201-5.845 7.209-1.88 3.449-3.367 7.77-4.42 12.842l-.006.03-.01.027c-.652 1.948-2.705 5.325-5.671 8.139-1.763 1.673-3.677 2.997-5.69 3.937a17.608 17.608 0 0 1-7.502 1.684c-4.875 0-9.988-2.003-15.2-5.954-.614-.279-1.363-.726-2.304-1.289-3.44-2.056-9.196-5.498-16.987-5.498-3.61 0-7.328.75-11.05 2.227-4.34 1.724-8.806 4.485-13.272 8.206l-.038.032-.045.024c-.25.135-.527.287-.847.464-1.99 1.096-5.319 2.93-9.47 4.465-5.02 1.857-9.956 2.798-14.67 2.798-6.73 0-13.098-1.911-18.927-5.681-3.38-2.186-6.631-5.036-9.663-8.47-3.289-3.725-6.406-8.237-9.267-13.411-.454-.776-.921-1.547-1.416-2.363-2.45-4.04-5.228-8.618-7.391-15.665-2.49-8.115-3.701-18.05-3.701-30.377v-.036l.005-.036c.212-1.45.715-3.437 1.296-5.737 1.572-6.211 3.723-14.717 3.157-23.335-.309-4.693-1.422-8.906-3.31-12.523-2.202-4.22-5.533-7.778-9.902-10.576a42.35 42.35 0 0 0-1.78-.866c-2.843-1.33-6.382-2.987-9.192-7.266C1.084 121.196-.5 113.778-.5 103.481l.002-.046C.483 92.8 4.06 83.508 10.135 75.815c4.855-6.148 11.305-11.288 19.17-15.277 3.856-1.955 10.164-4.673 18.321-6.521 4.883-1.106 8.168-1.379 8.2-1.381.023-.002 2.317-.196 5.92-1.023a69.8 69.8 0 0 0 14.126-4.927c6.35-3.019 12.034-6.923 16.895-11.605 6.075-5.85 10.877-12.939 14.274-21.07l.04-.094.072-.071c.247-.241.852-1.22 1.493-2.256 1.279-2.068 3.03-4.9 4.554-6.287 4.23-3.85 8.992-5.803 14.153-5.803Zm25.694 15.047C143.8 5.227 135.155.5 127.353.5c-4.904 0-9.44 1.865-13.48 5.542-1.42 1.292-3.129 4.056-4.377 6.074-.772 1.25-1.249 2.01-1.568 2.365-3.451 8.231-8.324 15.41-14.485 21.338-4.945 4.757-10.724 8.724-17.178 11.787a70.807 70.807 0 0 1-14.331 4.99c-3.66.838-5.932 1.029-6.027 1.036-.032.003-3.267.272-8.091 1.367-4.448 1.01-11.196 2.947-18.087 6.446-7.728 3.923-14.06 8.972-18.821 15.005a47.674 47.674 0 0 0-6.824 11.8C2.21 92.924 1.004 98.056.5 103.504c.001 5.36.453 10.012 1.343 13.827.778 3.337 1.869 6.044 3.336 8.278 2.655 4.043 6.051 5.632 8.78 6.91.652.305 1.268.593 1.842.897l.036.02c4.526 2.895 7.98 6.585 10.267 10.967 1.952 3.74 3.103 8.088 3.42 12.92.256 3.887-.005 8.085-.797 12.835-.675 4.043-1.624 7.796-2.387 10.81-.57 2.255-1.063 4.204-1.271 5.602.005 27.45 6.072 37.45 10.947 45.486.498.822.969 1.598 1.428 2.383l.006.01c2.826 5.113 5.902 9.566 9.144 13.238 2.971 3.366 6.153 6.156 9.456 8.292 5.665 3.664 11.85 5.521 18.384 5.521 4.596 0 9.414-.92 14.323-2.736 4.081-1.509 7.37-3.32 9.335-4.403.29-.16.567-.313.81-.445 4.535-3.772 9.079-6.576 13.505-8.334 3.84-1.525 7.682-2.298 11.419-2.298 8.067 0 13.972 3.53 17.5 5.64.903.54 1.682 1.005 2.25 1.257l.054.024.047.035c5.049 3.84 9.975 5.785 14.64 5.785 2.439 0 4.82-.535 7.08-1.59 1.914-.894 3.739-2.158 5.424-3.757 3.017-2.861 4.876-6.16 5.402-7.703 4.609-22.149 15.959-24.291 23.47-25.71a82.215 82.215 0 0 0 1.899-.373c7.3-2.179 13.427-4.99 18.212-8.356 4.024-2.83 7.184-6.115 9.392-9.763 3.986-6.585 4.095-12.975 4.16-16.793.015-.854.027-1.592.08-2.18.002-10.844.844-20.292 1.551-26.31.84-7.145 1.962-13.441 3.002-16.84l.01-.033.015-.032c4.003-8.576 6.743-16.041 8.144-22.187 1.181-5.185 1.437-9.548.758-12.968-.535-2.697-1.626-4.818-3.336-6.486-1.458-1.421-3.097-2.247-4.415-2.91-.331-.167-.645-.325-.93-.48-7.475-3.787-12.506-8.076-15.382-13.112-2.566-4.495-2.941-8.8-3.215-11.942l-.001-.044c0-25.392-17.525-28.265-24.122-29.346-.396-.065-.74-.122-1.047-.177-5.09-.004-9.928-.7-14.384-2.066a43.908 43.908 0 0 1-10.99-5.14c-6.306-4.085-10.656-9.05-14.151-13.04a168.388 168.388 0 0 0-1.896-2.14Z" fill-rule="evenodd" fill="url(&quot;#a&quot;)" transform="translate(72.554 245)" data-name="Path 7 - Outline"/><path d="M152.604 269.27s4.566-17.847 23.539-6.721c6.69 3.497 24.741 13.259 41.764 1.224 5.952-3.018 21.324-13.438 31.67 10.5 3.576 7.746 15.366 44.879 48.812 50.593 6.08 1.826 18.694 1.28 12.387 23.696-1.525 8.402-5.602 27.467 0 47.408 3.098 6.865 4.886 19.53 0 35.158-3.283 12.908-6.352 31.46-7.338 38.384-.987 6.923-6.3 20.576-23.513 18.125-10.978-.41-55.214-2.466-55.214-2.466s-15.615 1.93-27.095 5.632c-7.32 2.868-23.061 7.728-39.137-5.632-4.583-2.948-12.052-12.297-29.5-15.66-8.614-1.918-40.837-8.584-37.91-24.654.939-4.441 5.81-13.73 0-29.492-6.199-11.108-23.387-16.006-1.96-31.528 2.681-2.355 18.651-15.357 18.651-31.792-.798-7.612-4.29-29.61 15.714-44.01 26.043-16.79 29.13-38.766 29.13-38.766Z" fill="rgba(186,202,194,0 )" fill-rule="evenodd" data-name="Path 6"/><path d="M86.259.116c3.398 0 7.254 1.25 11.46 3.715l.294.154c2.175 1.138 5.463 2.859 9.44 4.283 4.734 1.696 9.319 2.556 13.626 2.556 6.472 0 12.485-1.931 17.873-5.74l.03-.022.032-.016c.409-.207.872-.455 1.362-.717 3.125-1.67 7.847-4.195 13.025-4.195 3.398 0 6.536 1.106 9.328 3.29 3.3 2.58 6.207 6.741 8.639 12.365.363.788.798 1.845 1.348 3.183 2.354 5.723 6.734 16.375 14.198 26.07 4.134 5.37 8.731 9.812 13.663 13.203 5.858 4.028 12.328 6.668 19.23 7.847l.03.005.029.009c.733.22 1.575.407 2.467.606 3.518.783 7.897 1.758 10.284 5.751 2.296 3.843 2.29 9.709-.02 17.931l-.27 1.466c-.83 4.479-2.085 11.247-2.467 19.21-.21 4.373-.13 8.652.236 12.72.43 4.762 1.266 9.38 2.484 13.728 1.747 3.886 2.82 9.014 3.023 14.445.252 6.743-.762 13.816-3.013 21.02-3.461 13.613-6.524 32.703-7.324 38.318-.293 2.052-1.36 7.313-4.941 11.835-1.69 2.132-3.715 3.805-6.021 4.974-2.666 1.351-5.73 2.037-9.106 2.037-1.275 0-2.615-.099-3.985-.292-10.748-.401-53.545-2.389-55.149-2.463-.904.114-15.935 2.053-26.946 5.602-3.625 1.419-9.218 3.301-15.959 3.301-8.492 0-16.447-3.028-23.643-9.001-1.02-.66-2.177-1.624-3.513-2.738-2.44-2.033-5.476-4.564-9.632-6.945-4.91-2.815-10.195-4.74-16.153-5.89l-.015-.002-.747-.166c-4.819-1.066-14.845-3.285-23.343-7.21-4.785-2.21-8.426-4.668-10.823-7.306-2.93-3.224-4.068-6.774-3.38-10.55l.003-.014c.157-.746.419-1.61.721-2.612 1.533-5.072 4.097-13.556-.688-26.567-1.564-2.79-3.836-5.183-6.033-7.497-3.488-3.675-6.783-7.145-6.38-11.51.18-1.938 1.065-3.895 2.708-5.982 1.753-2.227 4.333-4.563 7.888-7.14l.437-.379c1.898-1.639 6.342-5.477 10.4-10.928 5.055-6.786 7.62-13.538 7.627-20.068-.036-.34-.077-.714-.121-1.11-.484-4.34-1.293-11.603.416-19.623 2.081-9.766 7.339-17.742 15.627-23.708l.021-.015c5.892-3.798 11.078-8.181 15.414-13.027 3.467-3.876 6.402-8.055 8.723-12.421 3.953-7.438 4.761-12.913 4.769-12.967l.004-.027.007-.027c.028-.11.709-2.716 2.614-5.355 1.127-1.56 2.449-2.806 3.93-3.701C81.854.686 83.96.116 86.259.116Zm34.82 11.708c-4.422 0-9.12-.88-13.963-2.614-4.042-1.448-7.367-3.188-9.567-4.34l-.326-.17c-4.054-2.378-7.743-3.584-10.964-3.584-2.113 0-4.046.521-5.745 1.549-1.365.825-2.588 1.98-3.636 3.43-1.703 2.359-2.38 4.734-2.45 4.994-.075.501-.938 5.848-4.848 13.22-2.357 4.444-5.338 8.696-8.861 12.638-4.398 4.92-9.656 9.368-15.63 13.22-4.37 3.148-7.908 6.9-10.514 11.15-2.2 3.586-3.784 7.606-4.709 11.949-1.675 7.861-.877 15.024-.4 19.304.045.407.088.79.125 1.142l.002.026v.026c0 6.758-2.632 13.72-7.824 20.691-4.125 5.539-8.627 9.427-10.55 11.088-.175.152-.325.282-.447.39l-.037.028c-3.489 2.527-6.01 4.805-7.708 6.963-1.52 1.93-2.337 3.715-2.498 5.456-.163 1.77.346 3.495 1.603 5.426 1.152 1.769 2.781 3.485 4.506 5.302 2.249 2.368 4.574 4.818 6.2 7.732l.02.034.013.037c1.147 3.113 1.956 6.193 2.403 9.155.384 2.548.512 5.087.38 7.547-.24 4.508-1.294 7.993-2.063 10.537-.295.976-.55 1.82-.699 2.523-1.162 6.405 3.427 12.045 13.64 16.762 8.4 3.88 18.356 6.083 23.14 7.142l.742.164c6.066 1.17 11.448 3.133 16.454 6.002 4.232 2.425 7.305 4.987 9.775 7.045 1.323 1.102 2.465 2.054 3.44 2.681l.026.017.023.02c7.018 5.832 14.765 8.79 23.027 8.79 6.58 0 12.06-1.849 15.608-3.24l.029-.01c11.393-3.673 27.03-5.633 27.187-5.652l.042-.005.043.002c.442.02 44.358 2.061 55.208 2.465l.026.001.026.004c1.332.19 2.634.286 3.87.286 3.218 0 6.13-.65 8.654-1.929 2.176-1.103 4.09-2.685 5.689-4.703 3.43-4.33 4.454-9.383 4.735-11.355.802-5.631 3.875-24.78 7.348-38.436l.008-.026c2.22-7.1 3.22-14.064 2.972-20.698-.2-5.321-1.247-10.33-2.95-14.105l-.016-.034-.01-.037c-1.241-4.417-2.091-9.108-2.528-13.945-.37-4.113-.451-8.438-.24-12.856.387-8.031 1.648-14.84 2.483-19.346.098-.526.19-1.022.274-1.485l.01-.046c1.185-4.21 1.756-7.846 1.698-10.807-.05-2.566-.577-4.707-1.567-6.363-.959-1.604-2.37-2.815-4.315-3.7-1.726-.786-3.64-1.212-5.328-1.588-.898-.2-1.747-.389-2.508-.616-12.99-2.227-24.257-9.435-33.486-21.42-7.545-9.8-11.958-20.533-14.33-26.3-.547-1.33-.979-2.38-1.334-3.15l-.005-.012c-2.365-5.47-5.17-9.5-8.34-11.979-2.61-2.042-5.542-3.078-8.711-3.077-4.927 0-9.517 2.454-12.553 4.077-.483.258-.94.502-1.349.71-5.553 3.917-11.75 5.903-18.42 5.903Z" fill-rule="evenodd" fill="url(&quot;#b&quot;)" transform="translate(78.667 258.28)" data-name="Path 6 - Outline"/></g></g><g data-name="Group"><path d="M3.023 1.512c-1.081.231-1.28.43-1.511 1.511C1.28 1.942 1.082 1.743 0 1.512 1.081 1.28 1.28 1.082 1.512 0c.231 1.092.419 1.28 1.511 1.512Z" fill-rule="evenodd" fill="url(&quot;#c&quot;)" transform="translate(131 361.892)" data-name="Path"/><path d="M3.023 1.512c-1.082.238-1.273.43-1.511 1.511C1.272 1.941 1.082 1.75 0 1.512c1.082-.24 1.273-.43 1.512-1.512.238 1.082.43 1.273 1.511 1.512Z" fill-rule="evenodd" fill="url(&quot;#d&quot;)" transform="translate(263.008 329.646)" data-name="Path"/><path d="M5.038 2.52c-1.811.39-2.129.713-2.519 2.518C2.13 3.227 1.805 2.91 0 2.52 1.811 2.13 2.13 1.805 2.52 0c.39 1.805.707 2.123 2.518 2.52Z" fill-rule="evenodd" fill="url(&quot;#e&quot;)" transform="translate(133.015 384.062)" data-name="Path"/><path d="M5.038 2.52c-1.81.393-2.125.708-2.519 2.518C2.126 3.228 1.811 2.913 0 2.52 1.81 2.126 2.126 1.811 2.52 0c.393 1.804.715 2.126 2.518 2.52Z" fill-rule="evenodd" fill="url(&quot;#f&quot;)" transform="translate(203.554 307.477)" data-name="Path"/><path d="M5.038 2.52c-1.809.389-2.122.71-2.519 2.518C2.13 3.23 1.81 2.916 0 2.52 1.81 2.13 2.123 1.81 2.52 0c.389 1.81.71 2.123 2.518 2.52Z" fill-rule="evenodd" fill="url(&quot;#g&quot;)" transform="translate(243.862 351.815)" data-name="Path"/><path d="M0 2.42a2.52 2.52 0 1 1 0 .1z" fill-rule="evenodd" fill="url(&quot;#h&quot;)" transform="translate(148.13 355.846)" data-name="Oval"/><path d="M6.046 3.023c-2.165.47-2.547.851-3.023 3.023C2.553 3.881 2.172 3.5 0 3.023 2.166 2.553 2.547 2.172 3.023 0c.47 2.172.851 2.554 3.023 3.023Z" fill-rule="evenodd" fill="url(&quot;#i&quot;)" transform="translate(228.746 327.63)" data-name="Path"/><path d="M3.023 1.512c-1.084.24-1.272.427-1.511 1.511C1.272 1.94 1.084 1.751 0 1.512 1.084 1.272 1.272 1.084 1.512 0c.24 1.084.427 1.272 1.511 1.512Z" fill-rule="evenodd" fill="url(&quot;#j&quot;)" transform="translate(119.915 394.138)" data-name="Path"/><path d="M0 2.42a2.52 2.52 0 1 1 0 .1z" fill-rule="evenodd" fill="url(&quot;#k&quot;)" transform="translate(232.777 377.008)" data-name="Oval"/><path d="M3.023 1.512c-1.081.24-1.271.43-1.511 1.511-.24-1.081-.43-1.271-1.512-1.511 1.081-.24 1.271-.43 1.512-1.512.24 1.081.43 1.271 1.511 1.512Z" fill-rule="evenodd" fill="url(&quot;#l&quot;)" transform="translate(240.839 312.515)" data-name="Path"/><path d="M3.023 1.512c-1.085.24-1.28.426-1.511 1.511-.24-1.085-.427-1.28-1.512-1.511C1.085 1.272 1.28 1.085 1.512 0c.24 1.085.426 1.28 1.511 1.512Z" fill-rule="evenodd" fill="url(&quot;#m&quot;)" transform="translate(152.162 333.677)" data-name="Path"/><path d="M3.023 1.512c-1.081.23-1.27.43-1.511 1.511C1.28 1.942 1.082 1.753 0 1.512 1.081 1.28 1.27 1.082 1.512 0c.23 1.092.42 1.28 1.511 1.512Z" fill-rule="evenodd" fill="url(&quot;#n&quot;)" transform="translate(174.33 315.538)" data-name="Path"/><path d="M3.023 1.512c-1.09.233-1.278.422-1.511 1.511C1.278 1.933 1.089 1.745 0 1.512 1.09 1.278 1.278 1.089 1.512 0c.233 1.078.422 1.278 1.511 1.512Z" fill-rule="evenodd" fill="url(&quot;#o&quot;)" transform="translate(272.077 354.838)" data-name="Path"/><path d="M5.038 2.52c-1.806.39-2.127.706-2.519 2.518C2.128 3.232 1.812 2.911 0 2.52 1.806 2.128 2.128 1.812 2.52 0c.39 1.806.706 2.128 2.518 2.52Z" fill-rule="evenodd" fill="url(&quot;#p&quot;)" transform="translate(258.977 380.03)" data-name="Path"/><path d="M3.023 1.512c-1.084.238-1.278.42-1.517 1.511C1.266 1.943 1.084 1.75 0 1.512 1.084 1.272 1.278 1.09 1.506 0c.24 1.091.422 1.284 1.517 1.512Z" fill-rule="evenodd" fill="url(&quot;#q&quot;)" transform="translate(220.685 352.823)" data-name="Path"/></g><g data-name="Group"><path d="M2.015 1.008c-.72.154-.853.287-1.007 1.007C.853 1.295.72 1.162 0 1.008.72.853.853.72 1.008 0c.154.728.28.853 1.007 1.008Z" fill-rule="evenodd" fill="url(&quot;#r&quot;)" transform="rotate(180 138.054 203.62)" data-name="Path"/><path d="M2.015 1.008c-.72.159-.848.286-1.007 1.007C.848 1.295.72 1.167 0 1.008.721.848.849.72 1.008 0c.159.721.286.849 1.007 1.008Z" fill-rule="evenodd" fill="url(&quot;#s&quot;)" transform="rotate(180 75.577 218.735)" data-name="Path"/><path d="M5.038 2.52c-1.811.39-2.129.713-2.519 2.518C2.13 3.227 1.805 2.91 0 2.52 1.811 2.13 2.13 1.805 2.52 0c.39 1.805.707 2.123 2.518 2.52Z" fill-rule="evenodd" fill="url(&quot;#t&quot;)" transform="rotate(180 137.55 193.542)" data-name="Path"/><path d="M5.038 2.52c-1.81.393-2.125.708-2.519 2.518C2.126 3.228 1.811 2.913 0 2.52 1.81 2.126 2.126 1.811 2.52 0c.393 1.804.715 2.126 2.518 2.52Z" fill-rule="evenodd" fill="url(&quot;#u&quot;)" transform="rotate(180 104.296 229.315)" data-name="Path"/><path d="M5.038 2.52c-1.809.389-2.122.71-2.519 2.518C2.13 3.23 1.81 2.916 0 2.52 1.81 2.13 2.123 1.81 2.52 0c.389 1.81.71 2.123 2.518 2.52Z" fill-rule="evenodd" fill="url(&quot;#v&quot;)" transform="rotate(180 85.15 208.658)" data-name="Path"/><path d="M0 2.42a2.52 2.52 0 1 1 0 .1z" fill-rule="evenodd" fill="url(&quot;#w&quot;)" transform="rotate(180 129.992 206.642)" data-name="Oval"/><path d="M6.046 3.023c-2.165.47-2.547.851-3.023 3.023C2.553 3.881 2.172 3.5 0 3.023 2.166 2.553 2.547 2.172 3.023 0c.47 2.172.851 2.554 3.023 3.023Z" fill-rule="evenodd" fill="url(&quot;#x&quot;)" transform="rotate(180 92.708 220.246)" data-name="Path"/><path d="M2.015 1.008c-.722.16-.847.285-1.007 1.007C.848 1.293.723 1.168 0 1.008.723.848.848.723 1.008 0c.16.723.285.848 1.007 1.008Z" fill-rule="evenodd" fill="url(&quot;#y&quot;)" transform="rotate(180 143.596 188.504)" data-name="Path"/><path d="M0 2.42a2.52 2.52 0 1 1 0 .1z" fill-rule="evenodd" fill="url(&quot;#z&quot;)" transform="rotate(180 90.692 196.565)" data-name="Oval"/><path d="M2.015 1.008c-.72.16-.847.287-1.007 1.007C.848 1.295.72 1.168 0 1.008.72.848.848.72 1.008 0c.16.72.287.848 1.007 1.008Z" fill-rule="evenodd" fill="url(&quot;#A&quot;)" transform="rotate(180 86.158 226.796)" data-name="Path"/><path d="M2.015 1.008c-.723.16-.853.284-1.007 1.007C.848 1.292.723 1.162 0 1.008.723.848.854.723 1.008 0c.16.723.284.854 1.007 1.008Z" fill-rule="evenodd" fill="url(&quot;#B&quot;)" transform="rotate(180 127.977 216.72)" data-name="Path"/><path d="M2.015 1.008c-.72.154-.846.287-1.007 1.007C.854 1.295.72 1.17 0 1.008.72.854.847.72 1.008 0c.154.728.28.854 1.007 1.008Z" fill-rule="evenodd" fill="url(&quot;#C&quot;)" transform="rotate(180 117.396 225.788)" data-name="Path"/><path d="M2.015 1.008c-.726.155-.852.281-1.007 1.007C.852 1.29.726 1.163 0 1.008.726.852.852.726 1.008 0c.155.719.281.852 1.007 1.008Z" fill-rule="evenodd" fill="url(&quot;#D&quot;)" transform="rotate(180 71.546 207.146)" data-name="Path"/><path d="M5.038 2.52c-1.806.39-2.127.706-2.519 2.518C2.128 3.232 1.812 2.911 0 2.52 1.806 2.128 2.128 1.812 2.52 0c.39 1.806.706 2.128 2.518 2.52Z" fill-rule="evenodd" fill="url(&quot;#E&quot;)" transform="rotate(180 78.6 195.558)" data-name="Path"/><path d="M2.015 1.008c-.722.159-.851.28-1.011 1.007C.844 1.295.722 1.167 0 1.008.722.848.852.728 1.004 0c.16.727.281.856 1.011 1.008Z" fill-rule="evenodd" fill="url(&quot;#F&quot;)" transform="rotate(180 96.235 207.65)" data-name="Path"/></g><g data-name="moon"><path d="M85.173 49.735c-.893-.224-1.786 0-2.568.56-2.902 2.467-6.25 4.484-9.935 5.829-3.46 1.345-7.255 2.017-11.274 2.017a32.76 32.76 0 0 1-23.219-9.638 33.024 33.024 0 0 1-9.6-23.312c0-3.81.67-7.51 1.786-10.871 1.228-3.587 3.014-6.837 5.358-9.639 1.005-1.233.782-3.026-.446-4.035-.782-.56-1.675-.784-2.568-.56C23.22 2.664 14.958 8.38 9.042 16 3.349 23.51 0 32.812 0 42.899 0 55.115 4.912 66.21 12.949 74.28c8.037 8.07 18.977 13 31.256 13 10.27 0 19.758-3.586 27.35-9.526 7.702-6.052 13.283-14.682 15.627-24.544.447-1.57-.446-3.138-2.01-3.475Z" fill-rule="evenodd" fill="url(&quot;#G&quot;)" transform="translate(164.424 338.445)" data-name="Path"/></g><path d="M85.78-.5c5.853 0 11.703.59 17.387 1.753a85.848 85.848 0 0 1 16.196 5.027 86.289 86.289 0 0 1 14.656 7.955 86.897 86.897 0 0 1 12.77 10.536 86.897 86.897 0 0 1 10.534 12.768 86.289 86.289 0 0 1 7.955 14.656 85.848 85.848 0 0 1 5.028 16.197 86.914 86.914 0 0 1 1.753 17.387c0 5.854-.59 11.704-1.753 17.388a85.848 85.848 0 0 1-5.028 16.196 86.289 86.289 0 0 1-7.955 14.656 86.897 86.897 0 0 1-10.535 12.77 86.897 86.897 0 0 1-12.769 10.534 86.289 86.289 0 0 1-14.656 7.955 85.848 85.848 0 0 1-16.196 5.028 86.914 86.914 0 0 1-17.388 1.753c-5.853 0-11.703-.59-17.387-1.753a85.848 85.848 0 0 1-16.197-5.028 86.289 86.289 0 0 1-14.656-7.955 86.897 86.897 0 0 1-12.768-10.535 86.897 86.897 0 0 1-10.536-12.769 86.289 86.289 0 0 1-7.955-14.656 85.848 85.848 0 0 1-5.027-16.196A86.914 86.914 0 0 1-.5 85.78c0-5.853.59-11.703 1.753-17.387A85.848 85.848 0 0 1 6.28 52.195a86.289 86.289 0 0 1 7.955-14.656 86.897 86.897 0 0 1 10.536-12.768 86.897 86.897 0 0 1 12.768-10.536A86.289 86.289 0 0 1 52.195 6.28a85.848 85.848 0 0 1 16.197-5.027A86.914 86.914 0 0 1 85.779-.5Zm0 171.559c5.786 0 11.568-.583 17.187-1.733a84.845 84.845 0 0 0 16.007-4.969 85.285 85.285 0 0 0 14.486-7.862 85.892 85.892 0 0 0 12.621-10.414 85.892 85.892 0 0 0 10.414-12.621 85.285 85.285 0 0 0 7.862-14.486 84.845 84.845 0 0 0 4.97-16.007 85.912 85.912 0 0 0 1.732-17.188c0-5.786-.583-11.569-1.733-17.187a84.846 84.846 0 0 0-4.969-16.007 85.285 85.285 0 0 0-7.862-14.486 85.892 85.892 0 0 0-10.414-12.621 85.892 85.892 0 0 0-12.621-10.414 85.285 85.285 0 0 0-14.486-7.863 84.845 84.845 0 0 0-16.007-4.968A85.912 85.912 0 0 0 85.779.5c-5.786 0-11.569.583-17.187 1.733A84.846 84.846 0 0 0 52.585 7.2a85.285 85.285 0 0 0-14.486 7.863 85.892 85.892 0 0 0-12.621 10.414 85.892 85.892 0 0 0-10.414 12.621 85.285 85.285 0 0 0-7.863 14.486 84.846 84.846 0 0 0-4.968 16.007A85.912 85.912 0 0 0 .5 85.78c0 5.787.583 11.57 1.733 17.188A84.845 84.845 0 0 0 7.2 118.974a85.285 85.285 0 0 0 7.863 14.486 85.892 85.892 0 0 0 10.414 12.621 85.892 85.892 0 0 0 12.621 10.414 85.285 85.285 0 0 0 14.486 7.862 84.846 84.846 0 0 0 16.007 4.97 85.912 85.912 0 0 0 17.187 1.732Z" fill-rule="evenodd" fill="url(&quot;#H&quot;)" transform="translate(120.106 294.416)" data-name="Oval"/></g><defs><linearGradient x1=".5" y1="0" x2=".5" y2="1" id="a"><stop stop-color="#21367f" offset="0"/><stop stop-color="#194d91" offset=".283"/><stop stop-color="#1590c1" offset=".879"/><stop stop-color="#0298ca" offset=".995"/><stop stop-color="#0298ca" offset="1"/></linearGradient><linearGradient x1=".5" y1="0" x2=".5" y2="1" id="b"><stop stop-color="#21367f" offset="0"/><stop stop-color="#194d91" offset=".283"/><stop stop-color="#1590c1" offset=".879"/><stop stop-color="#0298ca" offset=".995"/><stop stop-color="#0298ca" offset="1"/></linearGradient><linearGradient x1=".5" y1="0" x2=".5" y2="1" id="c"><stop stop-color="#21367f" offset="0"/><stop stop-color="#194d91" offset=".283"/><stop stop-color="#1590c1" offset=".879"/><stop stop-color="#0298ca" offset=".995"/><stop stop-color="#0298ca" offset="1"/></linearGradient><linearGradient x1=".5" y1="0" x2=".5" y2="1" id="d"><stop stop-color="#21367f" offset="0"/><stop stop-color="#194d91" offset=".283"/><stop stop-color="#1590c1" offset=".879"/><stop stop-color="#0298ca" offset=".995"/><stop stop-color="#0298ca" offset="1"/></linearGradient><linearGradient x1=".5" y1="0" x2=".5" y2="1" id="e"><stop stop-color="#21367f" offset="0"/><stop stop-color="#194d91" offset=".283"/><stop stop-color="#1590c1" offset=".879"/><stop stop-color="#0298ca" offset=".995"/><stop stop-color="#0298ca" offset="1"/></linearGradient><linearGradient x1=".5" y1="0" x2=".5" y2="1" id="f"><stop stop-color="#21367f" offset="0"/><stop stop-color="#194d91" offset=".283"/><stop stop-color="#1590c1" offset=".879"/><stop stop-color="#0298ca" offset=".995"/><stop stop-color="#0298ca" offset="1"/></linearGradient><linearGradient x1=".5" y1="0" x2=".5" y2="1" id="g"><stop stop-color="#21367f" offset="0"/><stop stop-color="#194d91" offset=".283"/><stop stop-color="#1590c1" offset=".879"/><stop stop-color="#0298ca" offset=".995"/><stop stop-color="#0298ca" offset="1"/></linearGradient><linearGradient x1=".5" y1="0" x2=".5" y2="1" id="h"><stop stop-color="#21367f" offset="0"/><stop stop-color="#194d91" offset=".283"/><stop stop-color="#1590c1" offset=".879"/><stop stop-color="#0298ca" offset=".995"/><stop stop-color="#0298ca" offset="1"/></linearGradient><linearGradient x1=".5" y1="0" x2=".5" y2="1" id="i"><stop stop-color="#21367f" offset="0"/><stop stop-color="#194d91" offset=".283"/><stop stop-color="#1590c1" offset=".879"/><stop stop-color="#0298ca" offset=".995"/><stop stop-color="#0298ca" offset="1"/></linearGradient><linearGradient x1=".5" y1="0" x2=".5" y2="1" id="j"><stop stop-color="#21367f" offset="0"/><stop stop-color="#194d91" offset=".283"/><stop stop-color="#1590c1" offset=".879"/><stop stop-color="#0298ca" offset=".995"/><stop stop-color="#0298ca" offset="1"/></linearGradient><linearGradient x1=".5" y1="0" x2=".5" y2="1" id="k"><stop stop-color="#21367f" offset="0"/><stop stop-color="#194d91" offset=".283"/><stop stop-color="#1590c1" offset=".879"/><stop stop-color="#0298ca" offset=".995"/><stop stop-color="#0298ca" offset="1"/></linearGradient><linearGradient x1=".5" y1="0" x2=".5" y2="1" id="l"><stop stop-color="#21367f" offset="0"/><stop stop-color="#194d91" offset=".283"/><stop stop-color="#1590c1" offset=".879"/><stop stop-color="#0298ca" offset=".995"/><stop stop-color="#0298ca" offset="1"/></linearGradient><linearGradient x1=".5" y1="0" x2=".5" y2="1" id="m"><stop stop-color="#21367f" offset="0"/><stop stop-color="#194d91" offset=".283"/><stop stop-color="#1590c1" offset=".879"/><stop stop-color="#0298ca" offset=".995"/><stop stop-color="#0298ca" offset="1"/></linearGradient><linearGradient x1=".5" y1="0" x2=".5" y2="1" id="n"><stop stop-color="#21367f" offset="0"/><stop stop-color="#194d91" offset=".283"/><stop stop-color="#1590c1" offset=".879"/><stop stop-color="#0298ca" offset=".995"/><stop stop-color="#0298ca" offset="1"/></linearGradient><linearGradient x1=".5" y1="0" x2=".5" y2="1" id="o"><stop stop-color="#21367f" offset="0"/><stop stop-color="#194d91" offset=".283"/><stop stop-color="#1590c1" offset=".879"/><stop stop-color="#0298ca" offset=".995"/><stop stop-color="#0298ca" offset="1"/></linearGradient><linearGradient x1=".5" y1="0" x2=".5" y2="1" id="p"><stop stop-color="#21367f" offset="0"/><stop stop-color="#194d91" offset=".283"/><stop stop-color="#1590c1" offset=".879"/><stop stop-color="#0298ca" offset=".995"/><stop stop-color="#0298ca" offset="1"/></linearGradient><linearGradient x1=".5" y1="0" x2=".5" y2="1" id="q"><stop stop-color="#21367f" offset="0"/><stop stop-color="#194d91" offset=".283"/><stop stop-color="#1590c1" offset=".879"/><stop stop-color="#0298ca" offset=".995"/><stop stop-color="#0298ca" offset="1"/></linearGradient><linearGradient x1=".5" y1="0" x2=".5" y2="1" id="r"><stop stop-color="#21367f" offset="0"/><stop stop-color="#194d91" offset=".283"/><stop stop-color="#1590c1" offset=".879"/><stop stop-color="#0298ca" offset=".995"/><stop stop-color="#0298ca" offset="1"/></linearGradient><linearGradient x1=".5" y1="0" x2=".5" y2="1" id="s"><stop stop-color="#21367f" offset="0"/><stop stop-color="#194d91" offset=".283"/><stop stop-color="#1590c1" offset=".879"/><stop stop-color="#0298ca" offset=".995"/><stop stop-color="#0298ca" offset="1"/></linearGradient><linearGradient x1=".5" y1="0" x2=".5" y2="1" id="t"><stop stop-color="#21367f" offset="0"/><stop stop-color="#194d91" offset=".283"/><stop stop-color="#1590c1" offset=".879"/><stop stop-color="#0298ca" offset=".995"/><stop stop-color="#0298ca" offset="1"/></linearGradient><linearGradient x1=".5" y1="0" x2=".5" y2="1" id="u"><stop stop-color="#21367f" offset="0"/><stop stop-color="#194d91" offset=".283"/><stop stop-color="#1590c1" offset=".879"/><stop stop-color="#0298ca" offset=".995"/><stop stop-color="#0298ca" offset="1"/></linearGradient><linearGradient x1=".5" y1="0" x2=".5" y2="1" id="v"><stop stop-color="#21367f" offset="0"/><stop stop-color="#194d91" offset=".283"/><stop stop-color="#1590c1" offset=".879"/><stop stop-color="#0298ca" offset=".995"/><stop stop-color="#0298ca" offset="1"/></linearGradient><linearGradient x1=".5" y1="0" x2=".5" y2="1" id="w"><stop stop-color="#21367f" offset="0"/><stop stop-color="#194d91" offset=".283"/><stop stop-color="#1590c1" offset=".879"/><stop stop-color="#0298ca" offset=".995"/><stop stop-color="#0298ca" offset="1"/></linearGradient><linearGradient x1=".5" y1="0" x2=".5" y2="1" id="x"><stop stop-color="#21367f" offset="0"/><stop stop-color="#194d91" offset=".283"/><stop stop-color="#1590c1" offset=".879"/><stop stop-color="#0298ca" offset=".995"/><stop stop-color="#0298ca" offset="1"/></linearGradient><linearGradient x1=".5" y1="0" x2=".5" y2="1" id="y"><stop stop-color="#21367f" offset="0"/><stop stop-color="#194d91" offset=".283"/><stop stop-color="#1590c1" offset=".879"/><stop stop-color="#0298ca" offset=".995"/><stop stop-color="#0298ca" offset="1"/></linearGradient><linearGradient x1=".5" y1="0" x2=".5" y2="1" id="z"><stop stop-color="#21367f" offset="0"/><stop stop-color="#194d91" offset=".283"/><stop stop-color="#1590c1" offset=".879"/><stop stop-color="#0298ca" offset=".995"/><stop stop-color="#0298ca" offset="1"/></linearGradient><linearGradient x1=".5" y1="0" x2=".5" y2="1" id="A"><stop stop-color="#21367f" offset="0"/><stop stop-color="#194d91" offset=".283"/><stop stop-color="#1590c1" offset=".879"/><stop stop-color="#0298ca" offset=".995"/><stop stop-color="#0298ca" offset="1"/></linearGradient><linearGradient x1=".5" y1="0" x2=".5" y2="1" id="B"><stop stop-color="#21367f" offset="0"/><stop stop-color="#194d91" offset=".283"/><stop stop-color="#1590c1" offset=".879"/><stop stop-color="#0298ca" offset=".995"/><stop stop-color="#0298ca" offset="1"/></linearGradient><linearGradient x1=".5" y1="0" x2=".5" y2="1" id="C"><stop stop-color="#21367f" offset="0"/><stop stop-color="#194d91" offset=".283"/><stop stop-color="#1590c1" offset=".879"/><stop stop-color="#0298ca" offset=".995"/><stop stop-color="#0298ca" offset="1"/></linearGradient><linearGradient x1=".5" y1="0" x2=".5" y2="1" id="D"><stop stop-color="#21367f" offset="0"/><stop stop-color="#194d91" offset=".283"/><stop stop-color="#1590c1" offset=".879"/><stop stop-color="#0298ca" offset=".995"/><stop stop-color="#0298ca" offset="1"/></linearGradient><linearGradient x1=".5" y1="0" x2=".5" y2="1" id="E"><stop stop-color="#21367f" offset="0"/><stop stop-color="#194d91" offset=".283"/><stop stop-color="#1590c1" offset=".879"/><stop stop-color="#0298ca" offset=".995"/><stop stop-color="#0298ca" offset="1"/></linearGradient><linearGradient x1=".5" y1="0" x2=".5" y2="1" id="F"><stop stop-color="#21367f" offset="0"/><stop stop-color="#194d91" offset=".283"/><stop stop-color="#1590c1" offset=".879"/><stop stop-color="#0298ca" offset=".995"/><stop stop-color="#0298ca" offset="1"/></linearGradient><linearGradient x1=".5" y1="0" x2=".5" y2="1" id="G"><stop stop-color="#21367f" offset="0"/><stop stop-color="#194d91" offset=".283"/><stop stop-color="#1590c1" offset=".879"/><stop stop-color="#0298ca" offset=".995"/><stop stop-color="#0298ca" offset="1"/></linearGradient><linearGradient x1=".5" y1="0" x2=".5" y2="1" id="H"><stop stop-color="#21367f" offset="0"/><stop stop-color="#194d91" offset=".283"/><stop stop-color="#1590c1" offset=".879"/><stop stop-color="#0298ca" offset=".995"/><stop stop-color="#0298ca" offset="1"/></linearGradient></defs></svg>