<svg xmlns="http://www.w3.org/2000/svg" width="13.604" height="15" viewBox="278.396 606.017 13.604 15"><path d="M282.407 621.017c-1.325 0-2.349-.38-3.043-1.127-.643-.692-.968-1.663-.968-2.885v-6.977c0-1.222.325-2.193.968-2.885.694-.747 1.718-1.126 3.043-1.126h5.581c1.326 0 2.35.379 3.044 1.126.642.692.968 1.663.968 2.885v6.977c0 1.222-.326 2.193-.968 2.885-.694.747-1.718 1.127-3.044 1.127h-5.581Zm-2.276-13.162c-.457.492-.689 1.223-.689 2.173v6.977c0 .95.232 1.68.689 2.173.488.526 1.254.792 2.276.792h5.581c1.023 0 1.79-.266 2.277-.792.457-.492.689-1.223.689-2.173v-6.977c0-.95-.232-1.68-.689-2.173-.488-.526-1.254-.792-2.277-.792h-5.581c-1.022 0-1.788.266-2.276.792Zm2.276 9.673a.523.523 0 1 1 0-1.046h5.581a.523.523 0 1 1 0 1.046h-5.581Zm0-2.79a.523.523 0 1 1 0-1.047h2.791a.523.523 0 0 1 0 1.046h-2.791Zm5.93-3.14a1.921 1.921 0 0 1-1.918-1.919v-1.395a.523.523 0 0 1 1.046 0v1.395c0 .48.392.872.873.872h1.395a.523.523 0 0 1 0 1.047h-1.395Z" fill="#171b1e" fill-rule="evenodd" data-name="Union 3"/></svg>